<?xml version="1.0" encoding="iso-8859-1"?>
<!-- Generator: Adobe Illustrator 19.0.0, SVG Export Plug-In . SVG Version: 6.00 Build 0)  -->
<svg version="1.1" id="Layer_1" xmlns="http://www.w3.org/2000/svg" xmlns:xlink="http://www.w3.org/1999/xlink" x="0px" y="0px"
	 viewBox="0 0 503.704 503.704" style="enable-background:new 0 0 503.704 503.704;" xml:space="preserve">
<g>
	<path style="fill:#FFE100;" d="M388.03,462.341L388.03,462.341c11.378,11.378,29.393,11.378,39.822,0l67.319-67.319
		c11.378-11.378,11.378-29.393,0-39.822c-11.378-11.378-29.393-11.378-39.822,0l-67.319,67.319
		C376.652,432.948,376.652,450.963,388.03,462.341"/>
	<path style="fill:#FFE100;" d="M331.141,442.43L331.141,442.43c11.378,11.378,29.393,11.378,39.822,0l103.348-102.4
		c11.378-11.378,11.378-29.393,0-39.822c-11.378-11.378-29.393-11.378-39.822,0l-103.348,102.4
		C320.711,413.037,320.711,432,331.141,442.43"/>
	<polygon style="fill:#FFE100;" points="322.607,109.63 95.052,337.185 150.993,394.074 379.496,166.519 	"/>
</g>
<polyline style="fill:#FFA800;" points="166.163,403.556 393.719,176 379.496,160.83 151.941,388.385 "/>
<path style="fill:#FFE100;" d="M124.444,481.304L124.444,481.304c-11.378,11.378-29.393,11.378-39.822,0l-67.319-67.318
	c-11.378-11.378-11.378-29.393,0-39.822c11.378-11.378,29.393-11.378,39.822,0l67.319,67.319
	C135.822,451.911,135.822,469.926,124.444,481.304"/>
<path style="fill:#FFA800;" d="M112.119,422.519c11.378,11.378,11.378,29.393,0,39.822c-9.481,9.481-24.652,10.43-36.03,3.793
	l14.222,14.222c11.378,11.378,29.393,11.378,39.822,0c11.378-11.378,11.378-29.393,0-39.822"/>
<path style="fill:#FFE100;" d="M181.333,459.496L181.333,459.496c-11.378,11.378-29.393,11.378-39.822,0l-104.296-102.4
	c-11.378-11.378-11.378-29.393,0-39.822c11.378-11.378,29.393-11.378,39.822,0l103.348,102.4
	C192.711,430.104,192.711,448.119,181.333,459.496"/>
<path style="fill:#FFA800;" d="M169.007,403.556c11.378,11.378,11.378,29.393,0,39.822c-9.481,9.481-24.652,10.43-36.03,3.793
	l14.222,14.222c11.378,11.378,29.393,11.378,39.822,0c11.378-11.378,11.378-29.393,0-39.822"/>
<path style="fill:#FFE100;" d="M475.259,129.541L475.259,129.541c11.378-11.378,11.378-29.393,0-39.822L407.941,22.4
	c-11.378-11.378-29.393-11.378-39.822,0c-11.378,11.378-11.378,29.393,0,39.822l67.319,67.319
	C445.867,140.919,463.882,140.919,475.259,129.541"/>
<path style="fill:#FFA800;" d="M417.422,110.578c11.378,11.378,29.393,11.378,39.822,0c9.481-9.481,10.43-24.652,3.793-36.03
	l14.222,14.222c11.378,11.378,11.378,29.393,0,39.822c-11.378,11.378-29.393,11.378-39.822,0"/>
<path style="fill:#FFE100;" d="M446.815,186.43L446.815,186.43c11.378-11.378,11.378-29.393,0-39.822l-102.4-104.296
	c-11.378-11.378-29.393-11.378-39.822,0c-11.378,11.378-11.378,29.393,0,39.822l102.4,103.348
	C417.422,197.807,435.437,197.807,446.815,186.43"/>
<path style="fill:#FFA800;" d="M398.459,174.104c11.378,11.378,29.393,11.378,39.822,0c9.481-9.481,10.43-24.652,3.793-36.03
	l14.222,14.222c11.378,11.378,11.378,29.393,0,39.822c-11.378,11.378-29.393,11.378-39.822,0"/>
<g>
	<path style="fill:#FFE100;" d="M436.385,120.059c11.378,11.378,29.393,11.378,39.822,0c9.481-9.481,10.43-24.652,3.793-36.03
		l14.222,14.222c11.378,11.378,11.378,29.393,0,39.822c-11.378,11.378-29.393,11.378-39.822,0"/>
	<path style="fill:#FFE100;" d="M417.422,183.585c11.378,11.378,29.393,11.378,39.822,0c9.481-9.481,10.43-24.652,3.793-36.03
		l14.222,14.222c11.378,11.378,11.378,29.393,0,39.822c-11.378,11.378-29.393,11.378-39.822,0"/>
	<polygon style="fill:#FFE100;" points="398.459,327.704 170.904,100.148 114.015,157.037 341.57,384.593 	"/>
</g>
<polyline style="fill:#FFFFFF;" points="98.844,171.259 327.348,398.815 341.57,384.593 114.015,157.037 "/>
<path style="fill:#FFE100;" d="M18.252,130.489L18.252,130.489c-11.378-11.378-11.378-29.393,0-39.822L85.57,23.348
	c11.378-11.378,29.393-11.378,39.822,0c11.378,11.378,11.378,29.393,0,39.822l-67.319,67.319
	C47.644,141.867,29.63,141.867,18.252,130.489"/>
<path style="fill:#FFFFFF;" d="M76.089,110.578c-11.378,11.378-29.393,11.378-39.822,0c-9.481-9.481-10.43-24.652-3.793-36.03
	l-14.222,15.17c-11.378,11.378-11.378,29.393,0,39.822c11.378,11.378,29.393,11.378,39.822,0"/>
<path style="fill:#FFE100;" d="M37.215,187.378L37.215,187.378c-11.378-11.378-11.378-29.393,0-39.822l102.4-104.296
	c11.378-11.378,29.393-11.378,39.822,0c11.378,11.378,11.378,29.393,0,39.822L77.985,187.378
	C66.607,198.756,48.593,198.756,37.215,187.378"/>
<path style="fill:#FFFFFF;" d="M95.052,167.467c-11.378,11.378-29.393,11.378-39.822,0c-9.481-9.481-10.43-24.652-3.793-36.03
	l-14.222,14.222c-11.378,11.378-11.378,29.393,0,39.822c11.378,11.378,29.393,11.378,39.822,0"/>
<path style="fill:#FFE100;" d="M368.118,479.407L368.118,479.407c11.378,11.378,29.393,11.378,39.822,0l67.319-67.318
	c11.378-11.378,11.378-29.393,0-39.822l0,0c-11.378-11.378-29.393-11.378-39.822,0l-67.319,67.318
	C356.741,450.963,356.741,468.978,368.118,479.407"/>
<path style="fill:#FFFFFF;" d="M388.03,422.519c-11.378,11.378-11.378,29.393,0,39.822c9.482,9.481,24.652,10.43,36.03,3.793
	l-14.222,14.222c-11.378,11.378-29.393,11.378-39.822,0c-11.378-11.378-11.378-29.393,0-39.822"/>
<path style="fill:#FFE100;" d="M311.23,460.444L311.23,460.444c11.378,11.378,29.393,11.378,39.822,0l104.296-102.4
	c11.378-11.378,11.378-29.393,0-39.822l0,0c-11.378-11.378-29.393-11.378-39.822,0l-104.296,102.4
	C299.852,432,299.852,450.015,311.23,460.444"/>
<path style="fill:#FFFFFF;" d="M331.141,403.556c-11.378,11.378-11.378,29.393,0,39.822c9.481,9.481,24.652,10.43,36.03,3.793
	l-14.222,14.222c-11.378,11.378-29.393,11.378-39.822,0c-11.378-11.378-11.378-29.393,0-39.822"/>
<path d="M166.163,477.511c-9.481,0-18.963-3.793-26.548-11.378L32.474,358.993c-7.585-7.585-11.378-17.067-11.378-26.548
	c0-10.43,3.793-19.911,11.378-26.548c7.585-7.585,17.067-11.378,26.548-11.378s19.911,3.793,26.548,11.378l107.141,107.141
	c15.17,15.17,15.17,38.874,0,54.044C186.074,473.719,175.644,477.511,166.163,477.511z M59.022,313.482
	c-4.741,0-9.481,1.896-13.274,5.689c-3.793,3.793-5.689,8.533-5.689,13.274s1.896,9.481,5.689,13.274l107.141,107.141
	c7.585,7.585,18.963,7.585,26.548,0c7.585-7.585,7.585-18.963,0-26.548L72.296,319.17C68.504,315.378,63.763,313.482,59.022,313.482
	z"/>
<path d="M105.481,499.319c-9.481,0-18.015-3.793-24.652-10.43l-21.807-21.807c-3.793-3.793-3.793-9.482,0-13.274
	c3.793-3.793,9.481-3.793,13.274,0l21.807,21.807c5.689,5.689,16.119,5.689,21.807,0l2.844-2.844
	c3.793-3.793,5.689-8.533,5.689-13.274c0-4.741-1.896-9.481-5.689-13.274l-67.319-67.319c-7.585-7.585-18.963-7.585-26.548,0
	l-0.948,0.948c-6.637,6.637-6.637,18.015,0,25.6l10.43,10.43c3.793,3.793,3.793,9.482,0,13.274c-3.793,3.793-9.481,3.793-13.274,0
	l-10.43-10.43c-14.222-14.222-14.222-37.926,0-52.148l0.948-0.948c15.17-15.17,38.874-15.17,54.044,0l67.319,67.319
	c7.585,7.585,11.378,17.067,11.378,26.548s-4.741,19.911-11.378,26.548l-2.844,2.844
	C123.496,495.526,114.963,499.319,105.481,499.319z"/>
<path d="M57.126,441.482c0-5.689-3.793-9.482-9.481-9.482s-9.481,3.793-9.481,9.482s3.793,9.481,9.481,9.481
	S57.126,447.17,57.126,441.482"/>
<path d="M434.489,209.185c-10.43,0-19.911-3.793-26.548-11.378L299.852,90.667c-15.17-15.17-15.17-38.874,0-54.044
	c15.17-15.17,38.874-15.17,54.044,0l107.141,107.141c7.585,7.585,11.378,17.067,11.378,26.548c0,9.481-3.793,19.911-11.378,26.548
	S444.919,209.185,434.489,209.185z M327.348,45.156c-4.741,0-9.481,1.896-13.274,5.689c-7.585,7.585-7.585,18.963,0,26.548
	l107.141,107.141c7.585,7.585,19.911,7.585,26.548,0c3.793-3.793,5.689-8.533,5.689-13.274c0-4.741-1.896-9.481-5.689-13.274
	L340.622,50.844C336.83,47.052,332.089,45.156,327.348,45.156z"/>
<path d="M454.4,148.504c-9.481,0-18.963-3.793-26.548-11.378l-67.319-66.37c-15.17-15.17-15.17-38.874,0-54.044
	s38.874-15.17,54.044,0l68.267,68.267c14.222,14.222,14.222,36.978,0,51.2l-1.896,1.896
	C474.311,145.659,463.882,148.504,454.4,148.504z M387.081,25.244c-4.741,0-9.481,1.896-13.274,5.689
	c-3.793,3.793-5.689,8.533-5.689,13.274s1.896,9.481,5.689,13.274l67.319,67.319c7.585,7.585,19.911,7.585,26.548,0l0.948-0.948
	c6.637-6.637,6.637-17.067,0-23.704l-68.267-68.267C397.511,27.141,392.77,25.244,387.081,25.244z"/>
<path d="M59.022,208.237c-9.481,0-18.963-3.793-26.548-11.378c-15.17-15.17-15.17-38.874,0-54.044L139.615,36.622
	c7.585-7.585,17.067-11.378,26.548-11.378c10.43,0,19.911,3.793,26.548,11.378c7.585,6.637,11.378,16.119,11.378,26.548
	s-3.793,19.911-11.378,26.548L85.57,197.807C77.985,204.444,68.504,208.237,59.022,208.237z M166.163,44.207
	c-4.741,0-9.481,1.896-13.274,5.689L45.748,157.037c-7.585,7.585-7.585,18.963,0,26.548s18.963,7.585,26.548,0L179.437,76.444
	c3.793-3.793,5.689-8.533,5.689-13.274s-1.896-9.481-5.689-13.274S170.904,44.207,166.163,44.207z"/>
<path d="M39.111,148.504c-9.481,0-18.963-3.793-26.548-11.378c-15.17-15.17-15.17-38.874,0-54.044l67.319-67.319
	c15.17-15.17,38.874-15.17,54.044,0c15.17,15.17,15.17,38.874,0,54.044l-67.319,67.319
	C58.074,144.711,48.593,148.504,39.111,148.504z M105.481,24.296c-4.741,0-9.481,1.896-13.274,5.689l-66.37,67.319
	c-7.585,7.585-7.585,18.963,0,26.548s18.963,7.585,26.548,0l67.319-67.319c7.585-7.585,7.585-18.963,0-26.548
	C115.911,26.193,111.17,24.296,105.481,24.296z"/>
<path d="M327.348,476.563c-10.43,0-19.911-3.793-26.548-11.378c-6.637-7.585-11.378-17.067-11.378-26.548
	c0-10.43,3.793-19.911,11.378-26.548l107.141-107.141c15.17-15.17,38.874-15.17,54.044,0c15.17,15.17,15.17,38.874,0,54.044
	L353.896,465.185C347.259,472.77,336.83,476.563,327.348,476.563z M434.489,312.533c-4.741,0-9.481,1.896-13.274,5.689
	L314.074,425.363c-3.793,3.793-5.689,8.533-5.689,13.274s1.896,9.481,5.689,13.274c7.585,7.585,19.911,7.585,26.548,0
	L447.763,344.77c7.585-7.585,7.585-18.963,0-26.548C443.97,314.43,439.23,312.533,434.489,312.533z"/>
<path d="M387.081,499.319c-8.533,0-17.067-2.844-22.756-9.481l-3.793-3.793c-15.17-15.17-15.17-38.874,0-54.044l67.319-67.318
	c15.17-15.17,38.874-15.17,54.044,0l0.948,0.948c14.222,14.222,14.222,36.978,0,51.2l-72.059,72.059
	C404.148,495.526,395.615,499.319,387.081,499.319z M454.4,373.215c-4.741,0-9.481,1.896-13.274,5.689l-67.318,67.319
	c-7.585,7.585-7.585,18.963,0,26.548l3.793,3.793c5.689,5.689,14.222,5.689,19.911,0l72.059-72.059
	c6.637-6.637,6.637-17.067,0-23.704l-0.948-0.948C463.882,375.111,459.141,373.215,454.4,373.215z"/>
<path d="M327.348,412.089L85.57,170.311l80.593-80.593l241.778,241.778L327.348,412.089z M112.119,170.311L326.4,384.593
	l54.044-54.044L166.163,117.215L112.119,170.311z"/>
<path d="M314.074,265.126l-80.593-80.593l93.867-93.867l80.593,80.593L314.074,265.126z M260.03,184.533l54.044,54.044l66.37-66.37
	L326.4,118.163L260.03,184.533z"/>
<path d="M166.163,413.037L85.57,332.444l93.867-93.867l80.593,80.593L166.163,413.037z M112.119,332.444l54.044,54.044
	l67.319-67.319l-53.096-54.044L112.119,332.444z"/>
<g>
</g>
<g>
</g>
<g>
</g>
<g>
</g>
<g>
</g>
<g>
</g>
<g>
</g>
<g>
</g>
<g>
</g>
<g>
</g>
<g>
</g>
<g>
</g>
<g>
</g>
<g>
</g>
<g>
</g>
</svg>
