<svg width="242" height="242" viewBox="0 0 242 242" fill="none" xmlns="http://www.w3.org/2000/svg">
<circle cx="121" cy="130.411" r="88.7333" fill="white"/>
<path d="M127.325 168.665V178.715L142.254 187.353C145.284 189.107 146.33 193.003 144.591 196.055C143.422 198.108 141.291 199.258 139.099 199.258C138.032 199.258 136.949 198.985 135.957 198.41L121.001 189.756L106.044 198.41C105.052 198.985 103.968 199.258 102.902 199.258C100.711 199.258 98.5796 198.11 97.4107 196.055C95.6714 193.002 96.7175 189.105 99.7471 187.353L114.678 178.715V168.665C114.211 168.329 113.761 167.964 113.344 167.551L95.1553 149.515C91.9827 146.369 91.0213 141.654 92.7076 137.501C94.3938 133.348 98.3607 130.665 102.811 130.665H139.19C143.642 130.665 147.607 133.348 149.294 137.501C150.98 141.654 150.019 146.369 146.845 149.515L128.657 167.552C128.241 167.965 127.792 168.33 127.325 168.665ZM223.304 77.3155C230.283 95.6007 252.24 160.218 227.349 191.361C203.264 221.499 163.811 231.921 146.964 236.371C144.373 237.054 142.136 237.646 140.772 238.093C129.188 241.892 121.803 242 120.999 242C120.194 242 112.808 241.89 101.223 238.093C99.861 237.646 97.6232 237.055 95.0326 236.371C78.1856 231.921 38.7323 221.499 14.6472 191.361C-10.2438 160.217 11.7149 95.6007 18.6925 77.3155C11.9313 72.0177 0 60.3154 0 43.6852C0 22.0466 18.1625 0 35.9898 0C36.2264 0 36.4617 0.00382509 36.6982 0.0127503C48.4764 0.422036 58.2989 12.8281 63.4588 20.8889C67.7382 18.1169 73.7924 15.206 80.3386 15.206H161.661C168.208 15.206 174.262 18.1169 178.541 20.8889C183.701 12.8281 193.525 0.422036 205.303 0.0127503C205.541 0.00382509 205.774 0 206.011 0C223.837 0 242 22.0466 242 43.6852C242 60.3154 230.069 72.0177 223.304 77.3155ZM79.3557 110.612C87.6856 110.612 94.9896 104.939 97.1198 96.8158C97.8244 94.1331 96.7238 91.2975 94.4001 89.8082L75.0131 77.3792C72.6842 75.8861 69.6698 76.0876 67.556 77.8714C63.369 81.4058 60.9693 86.5849 60.9693 92.0803C60.9693 102.298 69.2182 110.612 79.3557 110.612ZM165.259 164.053C165.259 146.271 157.419 131.379 141.956 119.793C135.866 115.231 128.619 112.819 121.001 112.819C113.382 112.819 106.135 115.231 100.046 119.793C84.5826 131.379 76.7423 146.271 76.7423 164.053C76.7423 191.672 95.8118 203.483 111.81 208.527C117.771 210.405 124.232 210.405 130.193 208.527C146.188 203.483 165.259 191.673 165.259 164.053ZM181.031 92.0791C181.031 86.5837 178.631 81.4058 174.444 77.8701C172.33 76.0863 169.313 75.8836 166.987 77.3779L147.6 89.807C145.276 91.2962 144.176 94.1319 144.88 96.8145C147.01 104.938 154.314 110.61 162.644 110.61C172.783 110.612 181.031 102.298 181.031 92.0791Z" fill="#8C8270"/>
</svg>
